name analog
datacolumns 19
datarows 35
range 0.3165 0.3335
endheader
time	ground_force_vx	ground_force_vy	ground_force_vz	ground_force_px	ground_force_py	ground_force_pz	l_ground_force_vx	l_ground_force_vy	l_ground_force_vz	l_ground_force_px	l_ground_force_py	l_ground_force_pz	ground_torque_x	ground_torque_y	ground_torque_z	l_ground_torque_x	l_ground_torque_y	l_ground_torque_z
0.3165	-0.0	-0.0	-0.0	-0.0	-0.0	-0.0	-5.945714473724365	11.113298416137695	-776.186767578125	-0.0	-0.0	-0.0	-0.0	-0.0	-0.0	227614.140625	9034.9912109375	-3023.249267578125
0.317	-0.0	-0.0	-0.0	-0.0	-0.0	-0.0	-6.045858383178711	10.853912353515623	-775.5572509765625	-0.0	-0.0	-0.0	-0.0	-0.0	-0.0	227413.5	9206.9482421875	-2901.53076171875
0.3175	-0.0	-0.0	-0.0	-0.0	-0.0	-0.0	-5.995621681213379	10.724437713623049	-774.7437744140625	-0.0	-0.0	-0.0	-0.0	-0.0	-0.0	227067.8125	9203.1044921875	-2774.7451171875
0.318	-0.0	-0.0	-0.0	-0.0	-0.0	-0.0	-6.403325080871582	9.93447494506836	-773.7835693359375	-0.0	-0.0	-0.0	-0.0	-0.0	-0.0	226390.953125	9307.169921875	-2523.47412109375
0.3185	-0.0	-0.0	-0.0	-0.0	-0.0	-0.0	-5.762824058532715	8.549283027648926	-772.7208251953125	-0.0	-0.0	-0.0	-0.0	-0.0	-0.0	225871.359375	9277.85546875	-2378.080322265625
0.319	-0.0	-0.0	-0.0	-0.0	-0.0	-0.0	-5.2025532722473145	7.736628532409668	-771.1072387695312	-0.0	-0.0	-0.0	-0.0	-0.0	-0.0	225371.15625	9193.1533203125	-1955.7276611328125
0.3195	-0.0	-0.0	-0.0	-0.0	-0.0	-0.0	-4.623081207275391	6.761599540710449	-771.1912841796875	-0.0	-0.0	-0.0	-0.0	-0.0	-0.0	224967.203125	9049.654296875	-1666.78857421875
0.32	-0.0	-0.0	-0.0	-0.0	-0.0	-0.0	-4.189657211303711	6.202679634094238	-770.4081420898438	-0.0	-0.0	-0.0	-0.0	-0.0	-0.0	224414.25	9068.8095703125	-1261.6961669921875
0.3205	-0.0	-0.0	-0.0	-0.0	-0.0	-0.0	-3.808842420578003	5.783390045166016	-770.3406372070312	-0.0	-0.0	-0.0	-0.0	-0.0	-0.0	223907.328125	8640.384765625	-1079.2269287109375
0.321	-0.0	-0.0	-0.0	-0.0	-0.0	-0.0	-3.282362937927246	5.309573173522949	-770.6181030273438	-0.0	-0.0	-0.0	-0.0	-0.0	-0.0	223556.765625	8420.7138671875	-816.7681884765625
0.3215	-0.0	-0.0	-0.0	-0.0	-0.0	-0.0	-2.805253267288208	4.620008945465088	-770.6409912109375	-0.0	-0.0	-0.0	-0.0	-0.0	-0.0	223479.453125	8391.2177734375	-537.9779052734375
0.322	-0.0	-0.0	-0.0	-0.0	-0.0	-0.0	-2.1741421222686768	4.064246654510498	-770.6663208007812	-0.0	-0.0	-0.0	-0.0	-0.0	-0.0	223214.03125	8263.03125	-319.7674255371094
0.3225	-0.0	-0.0	-0.0	-0.0	-0.0	-0.0	-1.9500629901885984	3.527235746383667	-770.9476318359375	-0.0	-0.0	-0.0	-0.0	-0.0	-0.0	222974.71875	8071.52734375	-21.201719284057617
0.323	-0.0	-0.0	-0.0	-0.0	-0.0	-0.0	-1.4856481552124023	3.058266878128052	-770.0538940429688	-0.0	-0.0	-0.0	-0.0	-0.0	-0.0	222542.578125	8045.921875	66.55057525634766
0.3235	-0.0	-0.0	-0.0	-0.0	-0.0	-0.0	-1.3858165740966797	2.886951208114624	-768.697509765625	-0.0	-0.0	-0.0	-0.0	-0.0	-0.0	221820.921875	7913.2548828125	136.9009246826172
0.324	-0.0	-0.0	-0.0	-0.0	-0.0	-0.0	-1.1302144527435305	2.1426451206207275	-766.1266479492188	-0.0	-0.0	-0.0	-0.0	-0.0	-0.0	221237.125	7781.970703125	192.44325256347656
0.3245	-0.0	-0.0	-0.0	-0.0	-0.0	-0.0	-0.3272334933280945	1.8160356283187864	-765.1437377929688	-0.0	-0.0	-0.0	-0.0	-0.0	-0.0	220342.515625	7480.263671875	383.9053039550781
0.325	-0.0	-0.0	-0.0	-0.0	-0.0	-0.0	0.1331705749034881	0.9163428544998168	-763.2457275390625	-0.0	-0.0	-0.0	-0.0	-0.0	-0.0	219570.03125	7334.53662109375	493.5514526367188
0.3255	-0.0	-0.0	-0.0	-0.0	-0.0	-0.0	0.6765228509902954	-0.1324604749679565	-761.281494140625	-0.0	-0.0	-0.0	-0.0	-0.0	-0.0	218830.3125	7345.92626953125	508.46240234375
0.326	-0.0	-0.0	-0.0	-0.0	-0.0	-0.0	0.4431950151920318	-0.8392347097396851	-758.6181030273438	-0.0	-0.0	-0.0	-0.0	-0.0	-0.0	218294.0625	7387.09912109375	497.1246948242188
0.3265	-0.0	-0.0	-0.0	-0.0	-0.0	-0.0	0.7037959098815918	-1.0649312734603882	-757.9635620117188	-0.0	-0.0	-0.0	-0.0	-0.0	-0.0	217885.046875	6964.544921875	610.1302490234375
0.327	-0.0	-0.0	-0.0	-0.0	-0.0	-0.0	1.5292365550994873	-1.5452001094818115	-758.7947998046875	-0.0	-0.0	-0.0	-0.0	-0.0	-0.0	217821.5	6712.50830078125	779.4583129882812
0.3275	-0.0	-0.0	-0.0	-0.0	-0.0	-0.0	2.6063554286956787	-2.140995740890503	-757.7935791015625	-0.0	-0.0	-0.0	-0.0	-0.0	-0.0	217787.765625	6451.7060546875	1004.4708862304688
0.328	-0.0	-0.0	-0.0	-0.0	-0.0	-0.0	2.661323547363281	-2.8697986602783203	-758.7168579101562	-0.0	-0.0	-0.0	-0.0	-0.0	-0.0	217778.9375	6681.5107421875	846.809326171875
0.3285	-0.0	-0.0	-0.0	-0.0	-0.0	-0.0	2.698997735977173	-2.8213181495666504	-759.6192016601562	-0.0	-0.0	-0.0	-0.0	-0.0	-0.0	217934.078125	6584.96533203125	813.0697021484375
0.329	-0.0	-0.0	-0.0	-0.0	-0.0	-0.0	2.704836368560791	-2.254039764404297	-759.404541015625	-0.0	-0.0	-0.0	-0.0	-0.0	-0.0	218323.234375	6820.29931640625	861.9114379882812
0.3295	-0.0	-0.0	-0.0	-0.0	-0.0	-0.0	2.611548900604248	-1.654632806777954	-760.4829711914062	-0.0	-0.0	-0.0	-0.0	-0.0	-0.0	218675.28125	7206.43408203125	748.6419677734375
0.33	-0.0	-0.0	-0.0	-0.0	-0.0	-0.0	2.800045967102051	-0.9737911224365234	-763.0753173828125	-0.0	-0.0	-0.0	-0.0	-0.0	-0.0	219029.53125	7329.31884765625	781.7490844726562
0.3305	-0.0	-0.0	-0.0	-0.0	-0.0	-0.0	2.4401721954345703	0.0018210969865322	-762.8489990234375	-0.0	-0.0	-0.0	-0.0	-0.0	-0.0	219310.84375	7919.76025390625	623.09228515625
0.331	-0.0	-0.0	-0.0	-0.0	-0.0	-0.0	2.2191507816314697	-0.3760603666305542	-764.8533935546875	-0.0	-0.0	-0.0	-0.0	-0.0	-0.0	219678.75	8330.669921875	517.0042724609375
0.3315	-0.0	-0.0	-0.0	-0.0	-0.0	-0.0	1.4476168155670166	-0.6699819564819336	-765.5394287109375	-0.0	-0.0	-0.0	-0.0	-0.0	-0.0	219850.546875	8774.1318359375	445.0514526367188
0.332	-0.0	-0.0	-0.0	-0.0	-0.0	-0.0	1.196028470993042	-0.1065015867352485	-765.2438354492188	-0.0	-0.0	-0.0	-0.0	-0.0	-0.0	219925.140625	9146.8291015625	244.24185180664065
0.3325	-0.0	-0.0	-0.0	-0.0	-0.0	-0.0	0.9269669651985168	-0.469742864370346	-765.2672119140625	-0.0	-0.0	-0.0	-0.0	-0.0	-0.0	219892.953125	9506.6357421875	185.64208984375
0.333	-0.0	-0.0	-0.0	-0.0	-0.0	-0.0	0.4522864818572998	0.1235341578722	-763.9290771484375	-0.0	-0.0	-0.0	-0.0	-0.0	-0.0	219655.453125	9832.5927734375	140.98046875
0.3335	-0.0	-0.0	-0.0	-0.0	-0.0	-0.0	0.7309086918830872	0.2294007390737533	-764.2982177734375	-0.0	-0.0	-0.0	-0.0	-0.0	-0.0	219598.4375	9880.9169921875	219.51010131835935
